<?xml version="1.0" encoding="iso-8859-1"?>
<!-- Uploaded to: SVG Repo, www.svgrepo.com, Generator: SVG Repo Mixer Tools -->
<svg height="800px" width="800px" version="1.1" id="Layer_1" xmlns="http://www.w3.org/2000/svg" xmlns:xlink="http://www.w3.org/1999/xlink" 
	 viewBox="0 0 512 512" xml:space="preserve">
<path style="fill:#77757E;" d="M328.102,64.383h104.014c4.964,0,8.901,4.181,8.604,9.136l-25.293,420.839
	c-0.339,5.639-5.01,10.038-10.66,10.038H107.233c-5.649,0-10.32-4.399-10.66-10.038L71.281,73.52
	c-0.298-4.955,3.64-9.136,8.604-9.136h104.014h144.204V64.383z"/>
<path style="fill:#ACAAB1;" d="M328.249,98.518h67.441c4.954,0,8.887,4.165,8.605,9.111l-20.146,352.563
	c-0.323,5.651-5,10.07-10.661,10.07H138.514c-5.661,0-10.338-4.417-10.661-10.07l-20.145-352.563
	c-0.283-4.946,3.652-9.111,8.605-9.111h67.441L328.249,98.518L328.249,98.518z"/>
<path style="fill:#57545C;" d="M205.021,409.735c-14.175-0.814-27.081-8.865-33.949-39.796
	c-6.868-30.931-21.971-147.073,25.604-153.977s27.96,84.029,28.715,100.627C226.146,333.185,239.668,411.725,205.021,409.735z"/>
<path style="fill:#77757E;" d="M163.711,316.588c1.456,22.531,4.734,42.851,7.065,53.35c6.868,30.932,19.775,38.982,33.949,39.796
	c34.647,1.99,21.124-76.55,20.369-93.148h-61.383V316.588z"/>
<circle style="fill:#69f0ae;" cx="256" cy="81.758" r="74.154"/>
<circle style="fill:#bfd9cc;" cx="256" cy="81.758" r="48.128"/>
<path style="fill:#57545C;" d="M302.818,409.735c14.175-0.814,27.081-8.865,33.949-39.796
	c6.868-30.932,21.971-147.073-25.604-153.977s-27.96,84.029-28.715,100.627S268.171,411.725,302.818,409.735z"/>
<path style="fill:#77757E;" d="M282.74,315.928c-0.003,0.228-0.007,0.454-0.016,0.66c-0.754,16.597-14.277,95.137,20.369,93.147
	c14.175-0.814,27.081-8.865,33.949-39.796c2.354-10.602,5.676-31.217,7.108-54.01H282.74V315.928z"/>
<path d="M446.804,59.171c-1.437-1.526-3.44-2.391-5.536-2.391H333.839C323.258,23.879,292.371,0,256,0s-67.258,23.879-77.838,56.779
	H70.732c-2.096,0-4.099,0.865-5.536,2.391c-1.437,1.526-2.18,3.577-2.054,5.67l26.445,440.013c0.241,4.015,3.568,7.148,7.59,7.148
	h317.647c4.023,0,7.348-3.133,7.59-7.148l26.445-440.013C448.983,62.748,448.24,60.697,446.804,59.171z M256,163.509
	c36.597,0,67.653-24.171,78.046-57.388h62.718l-20.374,356.536H135.609l-20.373-356.536h62.718
	C188.348,139.338,219.404,163.509,256,163.509z M256,15.208c36.694,0,66.548,29.853,66.548,66.547S292.695,148.302,256,148.302
	s-66.547-29.853-66.547-66.547S219.305,15.208,256,15.208z M407.664,496.792H104.338L78.806,71.987h96.042
	c-0.383,3.206-0.604,6.46-0.604,9.768c0,3.097,0.19,6.15,0.526,9.159h-67.585c-2.092,0-4.092,0.862-5.529,2.383
	c-1.437,1.521-2.183,3.567-2.063,5.655l21.241,371.743c0.23,4.025,3.561,7.17,7.592,7.17h255.145c4.031,0,7.362-3.146,7.592-7.17
	l21.24-371.743c0.12-2.089-0.627-4.135-2.063-5.655c-1.437-1.521-3.436-2.383-5.528-2.383h-67.586
	c0.338-3.009,0.526-6.062,0.526-9.159c0-3.307-0.22-6.562-0.604-9.768h96.042L407.664,496.792z"/>
<path d="M256,137.49c30.733,0,55.736-25.003,55.736-55.735S286.732,26.021,256,26.021s-55.734,25.003-55.734,55.735
	S225.268,137.49,256,137.49z M256,41.229c22.348,0,40.528,18.181,40.528,40.527c0,19.747-14.2,36.231-32.924,39.801V81.755
	c0-4.199-3.404-7.604-7.604-7.604c-4.2,0-7.604,3.405-7.604,7.604v39.801c-18.722-3.57-32.922-20.054-32.922-39.801
	C215.474,59.408,233.654,41.229,256,41.229z"/>
<path d="M204.585,417.327c0.567,0.032,1.127,0.049,1.684,0.049c7.017,0,13.186-2.583,17.922-7.527
	c15.114-15.778,12.915-51.517,9.668-83.779c-0.417-4.136-0.776-7.707-0.872-9.826c-0.115-2.513,0.441-8.113,1.083-14.597
	c2.686-27.109,6.744-68.077-11.689-85.693c-6.876-6.57-15.891-9.1-26.796-7.516c-10.212,1.482-18.648,6.956-25.077,16.271
	c-24.377,35.32-12.826,120-6.859,146.88C170.306,401.571,183.314,416.106,204.585,417.327z M213.209,399.329
	c-2.048,2.137-4.432,3.007-7.752,2.815l0,0c-9.739-0.559-20.559-5.019-26.962-33.853c-2.335-10.518-4.847-26.508-6.33-44.099h46.222
	c0.104,1.067,0.218,2.197,0.34,3.401C220.526,345.457,224.737,387.295,213.209,399.329z M183.024,233.346
	c3.983-5.772,8.807-8.998,14.745-9.859c1.42-0.207,2.709-0.298,3.879-0.298c5.552,0,8.452,2.063,10.226,3.758
	c13.077,12.497,9.164,51.985,7.063,73.199c-0.333,3.357-0.619,6.281-0.828,8.838h-46.923
	C169.892,279.696,172.155,249.095,183.024,233.346z"/>
<path d="M274.852,316.243c-0.096,2.119-0.455,5.691-0.872,9.826c-3.247,32.262-5.445,68.003,9.668,83.779
	c4.736,4.944,10.904,7.527,17.922,7.527c0.556,0,1.118-0.016,1.683-0.049c21.271-1.222,34.28-15.755,40.937-45.739
	c2.324-10.463,5.492-29.687,7.06-51.347c0.595-1.084,0.935-2.329,0.935-3.653c0-0.975-0.191-1.905-0.525-2.763
	c1.81-32.476-0.366-68.89-14.326-89.117c-6.429-9.315-14.866-14.789-25.077-16.271c-10.909-1.582-19.922,0.946-26.796,7.516
	c-18.435,17.616-14.377,58.584-11.69,85.694C274.412,308.13,274.966,313.729,274.852,316.243z M302.382,402.144
	c-3.323,0.191-5.704-0.678-7.752-2.815c-11.527-12.034-7.316-53.871-5.517-71.736c0.121-1.202,0.234-2.333,0.34-3.401h46.223
	c-1.482,17.591-3.994,33.581-6.33,44.099C322.941,397.125,312.121,401.584,302.382,402.144z M295.966,226.947
	c1.773-1.695,4.673-3.758,10.226-3.758c1.17,0,2.46,0.091,3.879,0.298c5.937,0.862,10.76,4.087,14.745,9.86
	c10.87,15.748,13.133,46.35,11.839,75.638h-46.923c-0.209-2.557-0.497-5.481-0.829-8.838
	C286.801,278.933,282.889,239.444,295.966,226.947z"/>
</svg>